<svg width="60" height="86" viewBox="0 0 60 86" fill="none" xmlns="http://www.w3.org/2000/svg">
<circle cx="30" cy="29.1273" r="27.1045" fill="#0066FF" stroke="#0F35BC" stroke-width="4.04545"/>
<path d="M25.1454 56.6364H34.8545L30 85.7636L25.1454 56.6364Z" fill="#0F35BC"/>
<path d="M13.6219 33.9454H21.8746V31.3887H16.9229V29.2851H20.6609V26.9225H16.9229V24.9322H21.6157V22.3754H13.6219V33.9454ZM23.8375 33.9454H26.7179V21.7605H23.8375V33.9454ZM32.9955 34.1396C35.7303 34.1396 37.1704 32.748 37.2514 30.612H34.6461C34.549 31.5343 33.9826 32.0198 33.1735 32.0198C32.0732 32.0198 31.5068 31.2593 31.5068 29.7867V29.6573C31.5068 28.2333 32.1055 27.5051 33.125 27.5051C33.9664 27.5051 34.3548 27.942 34.4843 28.7349H37.2028C37.041 26.162 35.1315 25.2558 33.0603 25.2558C30.5683 25.2558 28.5455 26.874 28.5455 29.6896V29.8191C28.5455 32.6671 30.4712 34.1396 32.9955 34.1396ZM42.3792 32.1816C41.6996 32.1816 41.3759 31.8742 41.3759 31.3887C41.3759 30.6929 41.8938 30.4663 43.0589 30.4663H43.8194V30.9842C43.8194 31.7123 43.2045 32.1816 42.3792 32.1816ZM41.3759 34.1396C42.7352 34.1396 43.4796 33.5733 43.8841 32.9583V33.9454H46.6998V28.4598C46.6998 26.2105 45.211 25.2558 42.8809 25.2558C40.5669 25.2558 38.9649 26.2591 38.8354 28.298H41.5539C41.6187 27.764 41.9099 27.2947 42.7029 27.2947C43.6252 27.2947 43.8194 27.8287 43.8194 28.6378V28.832H43.0103C40.1947 28.832 38.5118 29.6087 38.5118 31.5991C38.5118 33.3953 39.8549 34.1396 41.3759 34.1396Z" fill="white"/>
</svg>
